<svg xmlns="http://www.w3.org/2000/svg" width="1080" height="1080" viewBox="0 0 1080 1080"><path  transform="translate(31.907 51.84)scale(20.34)" d="M31 8s-3.363-.074-5.719 2.281a1.014 1.014 0 0 0 0 1.438c.399.398 1.04.398 1.438 0 1.312-1.313 2.918-1.555 3.656-1.625.203.43.43.906.531 1.406q.02.112.063.219a3.6 3.6 0 0 1-.782 1.687c-.398.399-.789.594-1.187.594-6.102 0-7.305 2.906-7.906 4.406-.102.2-.188.395-.188.594-3.199 0-5.601-.898-6-1.5C13.508 15.102 12.398 15 8 15c-6.898 0-7.898 3.414-8 3.813-.102.3-.012.574.188.875C.289 19.789 1.508 21 3.906 21h.5c1.399-.602 2.899-1 4.5-1 6.102 0 11 4.898 11 11 0 .8-.113 1.605-.312 2.406 1.8.5 3.82.594 4.718.594h.188c1.8 0 4.398-.492 5.5-1.594.5-.5.594-1 .594-1.5-.871-6.02 2.14-8.75 3.531-9.687.398.91.805 1.824 1.25 2.718C33.297 25.54 32 28.122 32 30.908c0 5 4 9 9 9s9-4 9-9S46 22 41 22a8.6 8.6 0 0 0-3.906.906c.601 1.2 1.3 2.399 2 3.5C39.695 26.207 40.3 26 41 26c2.8 0 5 2.2 5 5s-2.2 5-5 5-5-2.2-5-5c0-1.398.508-2.602 1.406-3.5-.687-1.082-1.375-2.258-1.968-3.531.492-.39 1.07-.77 1.656-1.063-.899-1.8-1.805-3.695-2.407-5.593a1 1 0 0 0-.124-.25c-.805-2.637-1.583-5.895-1.657-5.97-.011-.054-.043-.105-.062-.155-.282-1.223-.969-2.407-.969-2.407A1 1 0 0 0 31 8Zm6.406 19.5c1.2 2 2.606 3.79 3.907 5.188.199.199.488.312.687.312s.488-.113.688-.312c.398-.399.398-.977 0-1.376-1.2-1.3-2.489-3.007-3.688-4.906-.602.301-1.094.594-1.594 1.094Zm.188-15.5c-.801 0-1.582.113-2.282.313.602 2.199 1.376 5.074 1.876 6.374 0 .102.124.211.124.313h.282c1.3 0 2.117-.312 2.718-.812.7-.7.688-1.7.688-2.5v-.376c0-.8.012-1.8-.687-2.5-.602-.5-1.418-.812-2.72-.812ZM9 22c-5 0-9 4-9 9s4 9 9 9c4.602 0 8.406-3.5 8.906-8h-4c-.5 2.3-2.508 4-4.906 4-2.8 0-5-2.2-5-5s2.2-5 5-5c2.398 0 4.406 1.7 4.906 4h4c-.5-4.5-4.304-8-8.906-8Zm4.906 8h-2.062c-.399-1.184-1.496-2-2.844-2-1.7 0-3 1.3-3 3s1.3 3 3 3c1.348 0 2.445-.816 2.844-2h2.062c.102-.3.094-.7.094-1s.008-.7-.094-1Z"/></svg>